<svg xmlns="http://www.w3.org/2000/svg" width="82" height="80" fill="none" viewBox="0 0 82 80"><path fill="#F0F0F0" stroke="#DBDBDB" stroke-width="2.382" d="M66.1912 8.19118H77.6176C78.2755 8.19118 78.8088 8.72448 78.8088 9.38235V69.6176C78.8088 70.2755 78.2755 70.8088 77.6176 70.8088H66.1912V8.19118Z"/><path stroke="#DBDBDB" stroke-width="2.382" d="M22.0517 19.2723L22.0094 10.1001C22.004 8.92546 22.8555 7.92221 24.0153 7.73664L63.3613 1.44139C64.8087 1.2098 66.12 2.32794 66.12 3.79382V75.8717C66.12 77.3323 64.8177 78.449 63.3742 78.2262L24.3037 72.1952C23.1461 72.0165 22.2902 71.023 22.2848 69.8517L22.2428 60.7554"/><circle cx="23" cy="40" r="21" stroke="#6E49CB" stroke-width="2.382"/><circle cx="23" cy="40" r="17" fill="#6E49CB"/><circle cx="23" cy="40" r="17" fill="#fff" fill-opacity=".9"/><path stroke="#6E49CB" stroke-linecap="round" stroke-width="2.382" d="M22.3125 48V33.3659"/><path stroke="#6E49CB" stroke-linecap="round" stroke-width="2.382" d="M15 40.3049H30"/></svg>